M48
;GenerationSoftware,Autodesk,EAGLE,9.5.1*%
;CreationDate,2020-02-11T05:35:45Z*%
FMAT,2
ICI,OFF
METRIC,TZ,000.000
T2C1.016
T1C2.500
%
G90
M71
T1
X7620Y77470
X7620Y6350
X78740Y6350
X78740Y77470
T2
X58420Y10160
X58420Y12700
X58420Y15240
X58420Y17780
X58420Y20320
X58420Y22860
X58420Y25400
X58420Y27940
X58420Y30480
X24130Y11430
X24130Y13970
X24130Y16510
X24130Y19050
X24130Y21590
X24130Y24130
X24130Y26670
X24130Y29210
X24130Y31750
X12700Y69850
X12700Y67310
X12700Y64770
X12700Y62230
X12700Y59690
X12700Y57150
X12700Y54610
X12700Y52070
X12700Y49530
X12700Y46990
X52070Y40640
X49530Y40640
X46990Y40640
X44450Y40640
X41910Y40640
X39370Y40640
X36830Y40640
X34290Y40640
X31750Y40640
X29210Y40640
X72390Y69850
X72390Y67310
X72390Y64770
X72390Y62230
X72390Y59690
X72390Y57150
X72390Y54610
X72390Y52070
X72390Y49530
X72390Y46990
X72390Y44450
M30