G04 EAGLE Gerber RS-274X export*
G75*
%MOMM*%
%FSLAX34Y34*%
%LPD*%
%INSoldermask Bottom*%
%IPPOS*%
%AMOC8*
5,1,8,0,0,1.08239X$1,22.5*%
G01*
%ADD10C,2.703200*%
%ADD11C,1.727200*%


D10*
X76200Y774700D03*
X76200Y63500D03*
X787400Y63500D03*
X787400Y774700D03*
D11*
X591820Y101600D02*
X576580Y101600D01*
X576580Y127000D02*
X591820Y127000D01*
X591820Y152400D02*
X576580Y152400D01*
X576580Y177800D02*
X591820Y177800D01*
X591820Y203200D02*
X576580Y203200D01*
X576580Y228600D02*
X591820Y228600D01*
X591820Y254000D02*
X576580Y254000D01*
X576580Y279400D02*
X591820Y279400D01*
X591820Y304800D02*
X576580Y304800D01*
X248920Y114300D02*
X233680Y114300D01*
X233680Y139700D02*
X248920Y139700D01*
X248920Y165100D02*
X233680Y165100D01*
X233680Y190500D02*
X248920Y190500D01*
X248920Y215900D02*
X233680Y215900D01*
X233680Y241300D02*
X248920Y241300D01*
X248920Y266700D02*
X233680Y266700D01*
X233680Y292100D02*
X248920Y292100D01*
X248920Y317500D02*
X233680Y317500D01*
X134620Y698500D02*
X119380Y698500D01*
X119380Y673100D02*
X134620Y673100D01*
X134620Y647700D02*
X119380Y647700D01*
X119380Y622300D02*
X134620Y622300D01*
X134620Y596900D02*
X119380Y596900D01*
X119380Y571500D02*
X134620Y571500D01*
X134620Y546100D02*
X119380Y546100D01*
X119380Y520700D02*
X134620Y520700D01*
X134620Y495300D02*
X119380Y495300D01*
X119380Y469900D02*
X134620Y469900D01*
X520700Y414020D02*
X520700Y398780D01*
X495300Y398780D02*
X495300Y414020D01*
X469900Y414020D02*
X469900Y398780D01*
X444500Y398780D02*
X444500Y414020D01*
X419100Y414020D02*
X419100Y398780D01*
X393700Y398780D02*
X393700Y414020D01*
X368300Y414020D02*
X368300Y398780D01*
X342900Y398780D02*
X342900Y414020D01*
X317500Y414020D02*
X317500Y398780D01*
X292100Y398780D02*
X292100Y414020D01*
X716280Y698500D02*
X731520Y698500D01*
X731520Y673100D02*
X716280Y673100D01*
X716280Y647700D02*
X731520Y647700D01*
X731520Y622300D02*
X716280Y622300D01*
X716280Y596900D02*
X731520Y596900D01*
X731520Y571500D02*
X716280Y571500D01*
X716280Y546100D02*
X731520Y546100D01*
X731520Y520700D02*
X716280Y520700D01*
X716280Y495300D02*
X731520Y495300D01*
X731520Y469900D02*
X716280Y469900D01*
X716280Y444500D02*
X731520Y444500D01*
M02*
