G04 EAGLE Gerber RS-274X export*
G75*
%MOMM*%
%FSLAX34Y34*%
%LPD*%
%IN*%
%IPPOS*%
%AMOC8*
5,1,8,0,0,1.08239X$1,22.5*%
G01*
%ADD10C,0.254000*%


D10*
X50800Y38100D02*
X812600Y38100D01*
X812600Y796800D01*
X50800Y796800D01*
X50800Y38100D01*
X88700Y774209D02*
X88623Y773230D01*
X88469Y772260D01*
X88240Y771304D01*
X87936Y770370D01*
X87561Y769463D01*
X87115Y768588D01*
X86601Y767750D01*
X86024Y766955D01*
X85386Y766208D01*
X84692Y765514D01*
X83945Y764876D01*
X83150Y764299D01*
X82312Y763785D01*
X81437Y763339D01*
X80530Y762964D01*
X79596Y762660D01*
X78641Y762431D01*
X77670Y762277D01*
X76691Y762200D01*
X75709Y762200D01*
X74730Y762277D01*
X73760Y762431D01*
X72804Y762660D01*
X71870Y762964D01*
X70963Y763339D01*
X70088Y763785D01*
X69250Y764299D01*
X68455Y764876D01*
X67708Y765514D01*
X67014Y766208D01*
X66376Y766955D01*
X65799Y767750D01*
X65285Y768588D01*
X64839Y769463D01*
X64464Y770370D01*
X64160Y771304D01*
X63931Y772260D01*
X63777Y773230D01*
X63700Y774209D01*
X63700Y775191D01*
X63777Y776170D01*
X63931Y777141D01*
X64160Y778096D01*
X64464Y779030D01*
X64839Y779937D01*
X65285Y780812D01*
X65799Y781650D01*
X66376Y782445D01*
X67014Y783192D01*
X67708Y783886D01*
X68455Y784524D01*
X69250Y785101D01*
X70088Y785615D01*
X70963Y786061D01*
X71870Y786436D01*
X72804Y786740D01*
X73760Y786969D01*
X74730Y787123D01*
X75709Y787200D01*
X76691Y787200D01*
X77670Y787123D01*
X78641Y786969D01*
X79596Y786740D01*
X80530Y786436D01*
X81437Y786061D01*
X82312Y785615D01*
X83150Y785101D01*
X83945Y784524D01*
X84692Y783886D01*
X85386Y783192D01*
X86024Y782445D01*
X86601Y781650D01*
X87115Y780812D01*
X87561Y779937D01*
X87936Y779030D01*
X88240Y778096D01*
X88469Y777141D01*
X88623Y776170D01*
X88700Y775191D01*
X88700Y774209D01*
X88700Y63009D02*
X88623Y62030D01*
X88469Y61060D01*
X88240Y60104D01*
X87936Y59170D01*
X87561Y58263D01*
X87115Y57388D01*
X86601Y56550D01*
X86024Y55755D01*
X85386Y55008D01*
X84692Y54314D01*
X83945Y53676D01*
X83150Y53099D01*
X82312Y52585D01*
X81437Y52139D01*
X80530Y51764D01*
X79596Y51460D01*
X78641Y51231D01*
X77670Y51077D01*
X76691Y51000D01*
X75709Y51000D01*
X74730Y51077D01*
X73760Y51231D01*
X72804Y51460D01*
X71870Y51764D01*
X70963Y52139D01*
X70088Y52585D01*
X69250Y53099D01*
X68455Y53676D01*
X67708Y54314D01*
X67014Y55008D01*
X66376Y55755D01*
X65799Y56550D01*
X65285Y57388D01*
X64839Y58263D01*
X64464Y59170D01*
X64160Y60104D01*
X63931Y61060D01*
X63777Y62030D01*
X63700Y63009D01*
X63700Y63991D01*
X63777Y64970D01*
X63931Y65941D01*
X64160Y66896D01*
X64464Y67830D01*
X64839Y68737D01*
X65285Y69612D01*
X65799Y70450D01*
X66376Y71245D01*
X67014Y71992D01*
X67708Y72686D01*
X68455Y73324D01*
X69250Y73901D01*
X70088Y74415D01*
X70963Y74861D01*
X71870Y75236D01*
X72804Y75540D01*
X73760Y75769D01*
X74730Y75923D01*
X75709Y76000D01*
X76691Y76000D01*
X77670Y75923D01*
X78641Y75769D01*
X79596Y75540D01*
X80530Y75236D01*
X81437Y74861D01*
X82312Y74415D01*
X83150Y73901D01*
X83945Y73324D01*
X84692Y72686D01*
X85386Y71992D01*
X86024Y71245D01*
X86601Y70450D01*
X87115Y69612D01*
X87561Y68737D01*
X87936Y67830D01*
X88240Y66896D01*
X88469Y65941D01*
X88623Y64970D01*
X88700Y63991D01*
X88700Y63009D01*
X799900Y63009D02*
X799823Y62030D01*
X799669Y61060D01*
X799440Y60104D01*
X799136Y59170D01*
X798761Y58263D01*
X798315Y57388D01*
X797801Y56550D01*
X797224Y55755D01*
X796586Y55008D01*
X795892Y54314D01*
X795145Y53676D01*
X794350Y53099D01*
X793512Y52585D01*
X792637Y52139D01*
X791730Y51764D01*
X790796Y51460D01*
X789841Y51231D01*
X788870Y51077D01*
X787891Y51000D01*
X786909Y51000D01*
X785930Y51077D01*
X784960Y51231D01*
X784004Y51460D01*
X783070Y51764D01*
X782163Y52139D01*
X781288Y52585D01*
X780450Y53099D01*
X779655Y53676D01*
X778908Y54314D01*
X778214Y55008D01*
X777576Y55755D01*
X776999Y56550D01*
X776485Y57388D01*
X776039Y58263D01*
X775664Y59170D01*
X775360Y60104D01*
X775131Y61060D01*
X774977Y62030D01*
X774900Y63009D01*
X774900Y63991D01*
X774977Y64970D01*
X775131Y65941D01*
X775360Y66896D01*
X775664Y67830D01*
X776039Y68737D01*
X776485Y69612D01*
X776999Y70450D01*
X777576Y71245D01*
X778214Y71992D01*
X778908Y72686D01*
X779655Y73324D01*
X780450Y73901D01*
X781288Y74415D01*
X782163Y74861D01*
X783070Y75236D01*
X784004Y75540D01*
X784960Y75769D01*
X785930Y75923D01*
X786909Y76000D01*
X787891Y76000D01*
X788870Y75923D01*
X789841Y75769D01*
X790796Y75540D01*
X791730Y75236D01*
X792637Y74861D01*
X793512Y74415D01*
X794350Y73901D01*
X795145Y73324D01*
X795892Y72686D01*
X796586Y71992D01*
X797224Y71245D01*
X797801Y70450D01*
X798315Y69612D01*
X798761Y68737D01*
X799136Y67830D01*
X799440Y66896D01*
X799669Y65941D01*
X799823Y64970D01*
X799900Y63991D01*
X799900Y63009D01*
X799900Y774209D02*
X799823Y773230D01*
X799669Y772260D01*
X799440Y771304D01*
X799136Y770370D01*
X798761Y769463D01*
X798315Y768588D01*
X797801Y767750D01*
X797224Y766955D01*
X796586Y766208D01*
X795892Y765514D01*
X795145Y764876D01*
X794350Y764299D01*
X793512Y763785D01*
X792637Y763339D01*
X791730Y762964D01*
X790796Y762660D01*
X789841Y762431D01*
X788870Y762277D01*
X787891Y762200D01*
X786909Y762200D01*
X785930Y762277D01*
X784960Y762431D01*
X784004Y762660D01*
X783070Y762964D01*
X782163Y763339D01*
X781288Y763785D01*
X780450Y764299D01*
X779655Y764876D01*
X778908Y765514D01*
X778214Y766208D01*
X777576Y766955D01*
X776999Y767750D01*
X776485Y768588D01*
X776039Y769463D01*
X775664Y770370D01*
X775360Y771304D01*
X775131Y772260D01*
X774977Y773230D01*
X774900Y774209D01*
X774900Y775191D01*
X774977Y776170D01*
X775131Y777141D01*
X775360Y778096D01*
X775664Y779030D01*
X776039Y779937D01*
X776485Y780812D01*
X776999Y781650D01*
X777576Y782445D01*
X778214Y783192D01*
X778908Y783886D01*
X779655Y784524D01*
X780450Y785101D01*
X781288Y785615D01*
X782163Y786061D01*
X783070Y786436D01*
X784004Y786740D01*
X784960Y786969D01*
X785930Y787123D01*
X786909Y787200D01*
X787891Y787200D01*
X788870Y787123D01*
X789841Y786969D01*
X790796Y786740D01*
X791730Y786436D01*
X792637Y786061D01*
X793512Y785615D01*
X794350Y785101D01*
X795145Y784524D01*
X795892Y783886D01*
X796586Y783192D01*
X797224Y782445D01*
X797801Y781650D01*
X798315Y780812D01*
X798761Y779937D01*
X799136Y779030D01*
X799440Y778096D01*
X799669Y777141D01*
X799823Y776170D01*
X799900Y775191D01*
X799900Y774209D01*
M02*
