G04 EAGLE Gerber RS-274X export*
G75*
%MOMM*%
%FSLAX34Y34*%
%LPD*%
%INSolderpaste Top*%
%IPPOS*%
%AMOC8*
5,1,8,0,0,1.08239X$1,22.5*%
G01*
%ADD10R,1.600000X0.900000*%
%ADD11R,1.270000X0.710000*%
%ADD12R,0.710000X1.270000*%


D10*
X335000Y215900D03*
X335000Y226900D03*
X335000Y237900D03*
X335000Y248900D03*
X335000Y259900D03*
X335000Y204900D03*
X335000Y193900D03*
X335000Y182900D03*
X335000Y171900D03*
X427000Y259900D03*
X427000Y248900D03*
X427000Y237900D03*
X427000Y226900D03*
X427000Y215900D03*
X427000Y204900D03*
X427000Y193900D03*
X427000Y182900D03*
X427000Y171900D03*
D11*
X462450Y669500D03*
X462450Y656800D03*
X462450Y644100D03*
X462450Y631400D03*
X462450Y618700D03*
X462450Y606000D03*
X462450Y593300D03*
X462450Y580600D03*
X462450Y567900D03*
X462450Y555200D03*
X462450Y542500D03*
D12*
X445900Y530150D03*
X433200Y530150D03*
X420500Y530150D03*
X407800Y530150D03*
X395100Y530150D03*
X382400Y530150D03*
X369700Y530150D03*
X357000Y530150D03*
X344300Y530150D03*
X331600Y530150D03*
D11*
X324950Y555200D03*
X324950Y567900D03*
X324950Y580600D03*
X324950Y593300D03*
X324950Y606000D03*
X324950Y618700D03*
X324950Y631400D03*
X324950Y644100D03*
X324950Y656800D03*
X324950Y669500D03*
M02*
